<mxfile host="app.diagrams.net" modified="2023-06-14T15:11:57.350Z" agent="Mozilla/5.0 (Macintosh; Intel Mac OS X 10_15_7) AppleWebKit/537.36 (KHTML, like Gecko) Chrome/114.0.0.0 Safari/537.36" version="21.3.8" etag="EL3ya-RQ7yARlTey5HNV" type="github">
  <diagram name="ページ1" id="hNFUmTO-r2WZJOM3LmcD">
    <mxGraphModel>
      <root>
        <mxCell id="0" />
        <mxCell id="1" parent="0" />
      </root>
    </mxGraphModel>
  </diagram>
</mxfile>
